# File created by Blade
# Date/Time:  Wed Jan 21 18:40:15 2015
#---------------------------------------------------------
:version 1.10
:name HOM
:units
  mass 1.0
  length 1.000000
  angle deg
:documentation
     Acclaim Skeleton File
:root
   axis xyz
   order TX TY TZ RX RY RZ
   position 0.000000 0.000000 0.000000
   orientation 0 0 0
:bonedata
   begin
      id 1
      name RightUpLeg_dum
      direction -1.000000 0.000000 0.000000
      length 3.693983
      axis 0.0 0.0 0.0 xyz
   end
   begin
      id 2
      name LeftUpLeg_dum
      direction 1.000000 0.000000 0.000000
      length 3.693983
      axis 0.0 0.0 0.0 xyz
   end
   begin
      id 3
      name Spine_dum
      direction 0.000000 1.000000 0.000000
      length 2.392956
      axis 0.0 0.0 0.0 xyz
   end
   begin
      id 4
      name RightUpLeg
      direction 0.000000 -1.000000 0.000000
      length 15.795667
      axis 0.0 0.0 0.0 xyz
      dof rx ry rz
   end
   begin
      id 5
      name RightLeg
      direction 0.000000 -1.000000 0.000000
      length 14.766989
      axis 0.0 0.0 0.0 xyz
      dof rx ry rz
   end
   begin
      id 6
      name RightFoot
      direction 0.000000 -0.258819 0.965926
      length 4.962790
      axis 15.0 0.0 0.0 xyz
      dof rx ry rz
   end
   begin
      id 7
      name RightToeBase
      direction 0.000000 0.000000 1.000000
      length 2.952750
      axis 0.0 0.0 0.0 xyz
      dof rx ry rz
   end
   begin
      id 8
      name LeftUpLeg
      direction 0.000000 -1.000000 0.000000
      length 15.795667
      axis 0.0 0.0 0.0 xyz
      dof rx ry rz
   end
   begin
      id 9
      name LeftLeg
      direction 0.000000 -1.000000 0.000000
      length 14.766989
      axis 0.0 0.0 0.0 xyz
      dof rx ry rz
   end
   begin
      id 10
      name LeftFoot
      direction 0.000000 -0.258819 0.965926
      length 4.962790
      axis 15.0 0.0 0.0 xyz
      dof rx ry rz
   end
   begin
      id 11
      name LeftToeBase
      direction 0.000000 0.000000 1.000000
      length 2.952750
      axis 0.0 0.0 0.0 xyz
      dof rx ry rz
   end
   begin
      id 12
      name Spine
      direction 0.000000 1.000000 0.000000
      length 0.000000
      axis 0.0 0.0 0.0 xyz
      dof rx ry rz
   end
   begin
      id 13
      name Spine_dum1
      direction 0.000000 1.000000 0.000000
      length 13.207411
      axis 0.0 0.0 0.0 xyz
   end
   begin
      id 14
      name Spine_dum2
      direction 0.000000 1.000000 0.000000
      length 13.207411
      axis 0.0 0.0 0.0 xyz
   end
   begin
      id 15
      name Spine_dum3
      direction 0.000000 1.000000 0.000000
      length 19.250100
      axis 0.0 0.0 0.0 xyz
   end
   begin
      id 16
      name RightShoulder
      direction -1.000000 0.000000 0.000000
      length 8.140465
      axis 0.0 0.0 90.0 xyz
      dof rx ry rz
   end
   begin
      id 17
      name RightArm
      direction -1.000000 0.000000 0.000000
      length 10.649840
      axis 0.0 0.0 90.0 xyz
      dof rx ry rz
   end
   begin
      id 18
      name RightForeArm
      direction -1.000000 0.000000 0.000000
      length 8.304624
      axis 0.0 0.0 90.0 xyz
      dof ry rz rx
   end
   begin
      id 19
      name RightHand
      direction -1.000000 0.000000 0.000000
      length 0.000000
      axis 0.0 0.0 90.0 xyz
      dof rx ry rz
   end
   begin
      id 20
      name RightHand_dum1
      direction -1.000000 0.000000 0.000000
      length 3.937000
      axis 0.0 0.0 90.0 xyz
   end
   begin
      id 21
      name RightHand_dum2
      direction 0.000000 0.000000 0.000000
      length 0.000000
      axis 0.0 0.0 90.0 xyz
   end
   begin
      id 22
      name RightHandThumb1
      direction 0.000000 0.000000 1.000000
      length 3.937000
      axis 0.0 0.0 90.0 xyz
      dof rx rz ry
   end
   begin
      id 23
      name LeftShoulder
      direction 1.000000 0.000000 0.000000
      length 8.140465
      axis 0.0 0.0 -90.0 xyz
      dof rx ry rz
   end
   begin
      id 24
      name LeftArm
      direction 1.000000 0.000000 0.000000
      length 10.649840
      axis 0.0 0.0 -90.0 xyz
      dof rx ry rz
   end
   begin
      id 25
      name LeftForeArm
      direction 1.000000 0.000000 0.000000
      length 8.304624
      axis 0.0 0.0 -90.0 xyz
      dof ry rz rx
   end
   begin
      id 26
      name LeftHand
      direction 1.000000 0.000000 0.000000
      length 0.000000
      axis 0.0 0.0 -90.0 xyz
      dof rx ry rz
   end
   begin
      id 27
      name LeftHand_dum1
      direction 1.000000 0.000000 0.000000
      length 3.937000
      axis 0.0 0.0 -90.0 xyz
   end
   begin
      id 28
      name LeftHand_dum2
      direction 0.000000 0.000000 0.000000
      length 0.000000
      axis 0.0 0.0 -90.0 xyz
   end
   begin
      id 29
      name LeftHandThumb1
      direction 0.000000 0.000000 1.000000
      length 3.937000
      axis 0.0 0.0 -90.0 xyz
      dof rx rz ry
   end
   begin
      id 30
      name Head
      direction 0.000000 1.000000 0.000000
      length 4.527550
      axis 0.0 0.0 0.0 xyz
      dof rx ry rz
   end
:hierarchy
   begin
      root RightUpLeg_dum LeftUpLeg_dum Spine_dum
      RightUpLeg_dum RightUpLeg
      LeftUpLeg_dum LeftUpLeg
      Spine_dum Spine
      RightUpLeg RightLeg
      RightLeg RightFoot
      RightFoot RightToeBase
      LeftUpLeg LeftLeg
      LeftLeg LeftFoot
      LeftFoot LeftToeBase
      Spine Spine_dum1 Spine_dum2 Spine_dum3
      Spine_dum1 RightShoulder
      Spine_dum2 LeftShoulder
      Spine_dum3 Head
      RightShoulder RightArm
      RightArm RightForeArm
      RightForeArm RightHand
      RightHand RightHand_dum1 RightHand_dum2
      RightHand_dum2 RightHandThumb1
      LeftShoulder LeftArm
      LeftArm LeftForeArm
      LeftForeArm LeftHand
      LeftHand LeftHand_dum1 LeftHand_dum2
      LeftHand_dum2 LeftHandThumb1
   end

# File created by Blade
# Date/Time:  Wed Jan 21 18:40:08 2015
# Frame Rate: 120.000 fps
#------------------------------------------------------
:FULLY-SPECIFIED
:DEGREES
1106
root 2.685602 28.204290 -9.619970 85.728776 -32.695438 40.696978
RightUpLeg -147.194048 -56.085870 26.245097
RightLeg -4.206082 -0.000000 0.000000
RightFoot 14.028342 3.245863 52.383298
RightToeBase 21.542165 -0.000000 -0.000000
LeftUpLeg -84.130693 -14.734834 -28.064509
LeftLeg -6.587525 -0.000000 0.000000
LeftFoot -1.206230 11.435900 -22.001920
LeftToeBase 8.648929 -0.000000 -0.000000
Spine -30.048806 19.030237 12.564320
RightShoulder -13.058970 22.765615 -41.830291
RightArm 0.684872 7.199675 47.724228
RightForeArm -10.392268 0.000000 65.657143
RightHand 15.832944 0.000000 -29.409836
RightHandThumb1 -24.326973 -0.000000 -32.862282
LeftShoulder -10.944490 1.481732 35.880543
LeftArm 19.279735 -3.869247 -66.919036
LeftForeArm 32.150962 -0.000000 43.252773
LeftHand -34.058986 -0.000000 15.451128
LeftHandThumb1 -26.253704 0.000000 33.147579
Head -42.806034 -27.920220 16.012273
1107
root 2.669662 28.204958 -9.591303 85.667278 -32.905131 40.495965
RightUpLeg -146.780587 -55.895550 25.775694
RightLeg -4.218780 -0.000000 0.000000
RightFoot 14.109575 3.342865 52.348616
RightToeBase 21.450456 -0.000000 -0.000000
LeftUpLeg -84.025850 -14.432660 -28.163217
LeftLeg -6.564573 -0.000000 0.000000
LeftFoot -1.269991 11.389263 -21.955424
LeftToeBase 8.595458 -0.000000 -0.000000
Spine -29.923040 18.288637 12.823459
RightShoulder -13.192895 22.376091 -41.750432
RightArm 0.334319 7.064105 47.994128
RightForeArm -10.061133 -0.000000 65.750451
RightHand 15.636776 -0.000000 -29.265109
RightHandThumb1 -24.326973 -0.000000 -32.862282
LeftShoulder -10.729550 1.211373 35.916862
LeftArm 19.855351 -3.912863 -67.179365
LeftForeArm 32.858620 -0.000000 45.514363
LeftHand -34.455819 -0.000000 15.379604
LeftHandThumb1 -26.253704 0.000000 33.147579
Head -42.361078 -27.799287 15.737545
1108
root 2.656565 28.205088 -9.567290 85.663114 -33.122019 40.305124
RightUpLeg -146.504380 -55.699444 25.407733
RightLeg -4.236372 -0.000000 0.000000
RightFoot 14.174440 3.341094 52.694410
RightToeBase 21.844727 -0.000000 -0.000000
LeftUpLeg -83.975302 -14.167735 -28.275423
LeftLeg -6.546575 -0.000000 0.000000
LeftFoot -1.329389 11.314653 -21.970102
LeftToeBase 8.556271 -0.000000 -0.000000
Spine -29.866234 17.525596 13.055810
RightShoulder -13.333779 21.984409 -41.686703
RightArm -0.063175 6.855889 48.233895
RightForeArm -9.862714 -0.000000 65.762499
RightHand 15.595231 -0.000000 -29.508832
RightHandThumb1 -24.326973 -0.000000 -32.862282
LeftShoulder -10.507102 0.845508 36.005544
LeftArm 20.456785 -3.795295 -67.423936
LeftForeArm 33.422810 -0.000000 47.513444
LeftHand -34.444235 -0.000000 15.092701
LeftHandThumb1 -26.253704 0.000000 33.147579
Head -41.905584 -27.652775 15.451145
1109
root 2.644137 28.206102 -9.540828 85.643507 -33.381982 40.091196
RightUpLeg -146.119902 -55.487504 24.925477
RightLeg -4.303451 -0.000000 0.000000
RightFoot 14.343985 3.368352 52.428038
RightToeBase 21.464027 -0.000000 -0.000000
LeftUpLeg -83.884337 -13.877713 -28.432234
LeftLeg -6.563334 -0.000000 0.000000
LeftFoot -1.401250 11.316560 -22.041980
LeftToeBase 8.493054 -0.000000 -0.000000
Spine -29.739643 16.716376 13.314550
RightShoulder -13.399069 21.580940 -41.599724
RightArm -0.503372 6.781801 48.522338
RightForeArm -9.762314 -0.000000 65.752650
RightHand 15.755998 -0.000000 -29.690848
RightHandThumb1 -24.326973 -0.000000 -32.862282
LeftShoulder -10.295323 0.493562 36.049820
LeftArm 21.058393 -3.688095 -67.623255
LeftForeArm 33.853263 -0.000000 49.472081
LeftHand -34.391452 -0.000000 14.706628
LeftHandThumb1 -26.253704 0.000000 33.147579
Head -41.518897 -27.438783 15.171413
1110
root 2.631533 28.205230 -9.516471 85.622017 -33.602089 39.888036
RightUpLeg -145.793365 -55.289365 24.492426
RightLeg -4.269708 -0.000000 0.000000
RightFoot 14.363118 3.411817 52.432003
RightToeBase 21.485420 -0.000000 -0.000000
LeftUpLeg -83.798311 -13.601998 -28.583986
LeftLeg -6.566375 -0.000000 0.000000
LeftFoot -1.462628 11.324632 -22.074796
LeftToeBase 8.422829 -0.000000 -0.000000
Spine -29.664884 15.901949 13.595361
RightShoulder -13.409358 21.145178 -41.482967
RightArm -1.010909 6.727314 48.782658
RightForeArm -9.775712 -0.000000 65.689858
RightHand 15.679315 -0.000000 -29.918648
RightHandThumb1 -24.326973 -0.000000 -32.862282
LeftShoulder -9.957557 0.184569 36.075437
LeftArm 21.772924 -3.585500 -67.804271
LeftForeArm 34.287677 -0.000000 51.222832
LeftHand -34.367220 -0.000000 14.515101
LeftHandThumb1 -26.253704 0.000000 33.147579
Head -40.985034 -27.224275 14.830522
1111
root 2.619246 28.205455 -9.493771 85.625238 -33.852067 39.679892
RightUpLeg -145.462937 -55.069271 24.025606
RightLeg -4.277262 -0.000000 0.000000
RightFoot 14.373411 3.421902 52.315130
RightToeBase 21.477145 -0.000000 -0.000000
LeftUpLeg -83.703718 -13.331663 -28.813604
LeftLeg -6.608486 -0.000000 0.000000
LeftFoot -1.479239 11.294168 -22.086522
LeftToeBase 8.367629 -0.000000 -0.000000
Spine -29.584908 15.091599 13.822275
RightShoulder -13.493750 20.754735 -41.350129
RightArm -1.539904 6.599931 48.970268
RightForeArm -9.865222 -0.000000 65.501194
RightHand 15.770477 -0.000000 -29.918403
RightHandThumb1 -24.326973 -0.000000 -32.862282
LeftShoulder -9.670439 -0.155264 36.131760
LeftArm 22.620149 -3.317664 -67.949706
LeftForeArm 34.614745 -0.000000 52.764997
LeftHand -34.454465 -0.000000 14.585320
LeftHandThumb1 -26.253704 0.000000 33.147579
Head -40.472672 -26.972566 14.549688
